<?xml version="1.0" encoding="UTF-8"?>
<svg xmlns="http://www.w3.org/2000/svg" xmlns:xlink="http://www.w3.org/1999/xlink" viewBox="0 0 50 50" width="50px" height="50px">
<g id="surface29214690">
<path style=" stroke:none;fill-rule:nonzero;fill:rgb(0%,0%,0%);fill-opacity:1;" d="M 41.664062 24.710938 C 41.503906 15.503906 33.914062 8.175781 24.710938 8.335938 C 15.503906 8.496094 8.175781 16.085938 8.335938 25.289062 C 8.496094 34.496094 16.085938 41.824219 25.289062 41.664062 C 34.496094 41.503906 41.824219 33.914062 41.664062 24.710938 Z M 36.109375 24.804688 C 36.214844 30.941406 31.328125 36.003906 25.195312 36.109375 C 19.058594 36.214844 13.996094 31.328125 13.890625 25.195312 C 13.785156 19.058594 18.671875 13.996094 24.804688 13.890625 C 30.941406 13.785156 36.003906 18.671875 36.109375 24.804688 Z M 34.722656 24.832031 C 34.699219 23.679688 33.75 22.761719 32.601562 22.785156 L 27.046875 22.878906 L 26.972656 18.714844 C 26.953125 17.5625 26.003906 16.648438 24.855469 16.667969 C 23.703125 16.6875 22.789062 17.636719 22.808594 18.789062 L 22.917969 25.035156 C 22.9375 26.1875 23.886719 27.101562 25.035156 27.082031 L 32.675781 26.949219 C 33.824219 26.929688 34.742188 25.980469 34.722656 24.832031 Z M 34.722656 24.832031 "/>
</g>
</svg>
